<?xml version="1.0" standalone="no"?>
<svg
  width="600"
  height="600"
  viewBox="0 0 600 600"
  xmlns="http://www.w3.org/2000/svg"
>
  <g transform="translate(300,300)">
    <path d="M124.1,-140.9C168.1,-111,216,-78.8,211.3,-46.1C206.6,-13.4,149.2,19.8,121.3,71.7C93.3,123.7,94.9,194.3,65.5,224.2C36.1,254,-24.2,243.1,-59.7,210.2C-95.3,177.2,-106.1,122.4,-123.5,78.1C-141,33.9,-165,0.3,-171.5,-41.9C-177.9,-84,-166.7,-134.7,-135.2,-166.8C-103.7,-198.9,-51.9,-212.5,-5.9,-205.4C40.1,-198.4,80.1,-170.8,124.1,-140.9Z" fill="#FFB4BC" />
  </g>
</svg>
  