<?xml version="1.0" standalone="no"?>
<svg
  width="600"
  height="600"
  viewBox="0 0 600 600"
  xmlns="http://www.w3.org/2000/svg"
>
  <g transform="translate(300,300)">
    <path d="M71.3,-107.4C114.8,-82.9,187.9,-101.1,198,-87.8C208,-74.6,155,-30,146.9,20.6C138.8,71.1,175.6,127.6,163.6,142.2C151.6,156.9,90.9,129.8,49.4,119.9C7.9,110,-14.4,117.4,-46.2,123.5C-78.1,129.7,-119.5,134.6,-147.2,118.6C-175,102.7,-188.9,65.9,-176.7,36.1C-164.4,6.2,-125.9,-16.9,-118.3,-62.7C-110.8,-108.5,-134.4,-177.1,-119.8,-214.7C-105.2,-252.4,-52.6,-259.2,-19.4,-229.1C13.9,-198.9,27.8,-131.9,71.3,-107.4Z" fill="#FFB4BC" />
  </g>
</svg>
  