<?xml version="1.0" standalone="no"?>
<!DOCTYPE svg PUBLIC "-//W3C//DTD SVG 20010904//EN"
 "http://www.w3.org/TR/2001/REC-SVG-20010904/DTD/svg10.dtd">
<svg version="1.0" xmlns="http://www.w3.org/2000/svg"
 width="250.000000pt" height="250.000000pt" viewBox="0 0 250.000000 250.000000"
 preserveAspectRatio="xMidYMid meet">
<metadata>
Created by potrace 1.11, written by Peter Selinger 2001-2013
</metadata>
<g transform="translate(0.000000,250.000000) scale(0.100000,-0.100000)"
fill="#000000" stroke="none">
<path d="M832 2188 c0 -84 -1 -164 -1 -178 -1 -19 -16 -36 -60 -69 -62 -45
-121 -103 -140 -138 -7 -15 -11 -104 -11 -274 l0 -252 27 -36 c34 -45 39 -50
88 -86 22 -17 44 -34 50 -38 5 -4 18 -13 29 -21 17 -11 18 -28 19 -200 0 -114
4 -189 10 -193 6 -3 7 -1 4 4 -4 7 34 26 96 48 56 21 148 57 203 80 l102 42
123 -50 c68 -27 160 -62 204 -78 44 -15 79 -33 77 -39 -1 -6 2 -8 8 -5 6 4 11
28 10 54 -1 25 -1 109 -1 186 l1 140 52 35 c66 45 133 112 149 149 7 16 17 27
21 25 4 -3 8 0 8 5 0 6 -5 11 -11 11 -8 0 -8 4 0 14 14 16 12 106 -2 106 -5 0
-4 6 2 14 14 16 12 106 -2 106 -5 0 -4 6 2 14 14 16 12 106 -2 106 -5 0 -4 6
2 14 13 15 11 76 -2 76 -4 0 -5 5 -2 10 3 6 1 10 -4 10 -6 0 -11 6 -11 14 0
21 -72 98 -139 146 l-61 45 -1 130 c0 71 0 152 1 179 l2 49 -44 -5 c-24 -3
-119 -36 -211 -73 l-168 -67 -179 71 c-99 39 -193 71 -208 71 l-29 0 -1 -152z
m548 -479 c126 -54 244 -114 297 -151 l44 -30 -48 -30 c-89 -58 -395 -208
-422 -208 -10 0 -66 25 -216 95 -38 18 -112 57 -164 88 l-93 55 44 28 c66 44
77 50 168 95 145 71 263 117 280 108 8 -5 58 -27 110 -50z"/>
<path d="M330 395 l0 -175 25 0 25 0 0 161 0 162 26 -28 c14 -15 23 -34 20
-42 -3 -8 -6 -23 -6 -34 0 -10 -7 -19 -15 -19 -9 0 -15 -9 -15 -25 0 -27 3
-28 38 -19 51 14 67 125 23 170 -23 24 -61 33 -61 14 0 -5 -5 -10 -11 -10 -5
0 -7 5 -4 10 4 6 -5 10 -19 10 l-26 0 0 -175z"/>
<path d="M560 553 c0 -13 -3 -14 -8 -6 -7 11 -43 -149 -58 -252 -2 -16 -6 -40
-8 -53 -4 -18 0 -22 20 -22 25 0 28 4 38 53 5 19 13 27 27 27 15 0 19 5 15 16
-3 9 -6 17 -6 20 0 2 -7 1 -16 -3 -13 -5 -15 -2 -9 15 3 12 7 35 7 52 1 29 17
44 19 18 0 -7 2 -22 4 -33 2 -11 6 -38 9 -60 3 -22 7 -49 10 -60 2 -11 5 -26
5 -32 1 -8 14 -13 32 -13 16 0 28 4 25 8 -3 5 -8 24 -11 43 -3 19 -15 79 -26
134 -20 94 -25 122 -28 153 -2 19 -41 15 -41 -5z m13 -83 c4 -21 3 -29 -2 -20
-4 8 -11 31 -14 50 -4 21 -3 29 2 20 4 -8 11 -31 14 -50z"/>
<path d="M722 554 c-29 -20 -36 -69 -33 -222 1 -57 4 -66 35 -97 40 -42 46
-43 46 -9 0 14 4 23 10 19 6 -4 8 -11 5 -16 -4 -5 0 -9 9 -9 8 0 17 6 19 13 4
9 8 9 15 -2 6 -8 17 -11 25 -8 11 4 15 24 15 90 l-1 84 -38 0 c-34 0 -39 -3
-39 -24 0 -12 5 -23 10 -23 15 0 12 -66 -4 -79 -19 -16 -46 -3 -47 23 -8 105
-3 195 11 223 8 18 19 33 23 33 5 0 6 -4 3 -9 -3 -5 1 -14 9 -21 8 -7 15 -27
15 -44 0 -28 4 -32 29 -34 27 -2 28 0 25 30 -6 48 -24 87 -43 92 -33 9 -79 4
-99 -10z"/>
<path d="M935 548 c-16 -19 -20 -42 -23 -136 -5 -126 4 -161 49 -193 24 -17
29 -18 29 -5 0 9 5 16 10 16 6 0 10 -7 10 -15 0 -24 57 22 68 54 12 37 14 200
3 240 -6 18 -18 39 -28 47 -21 16 -57 19 -48 4 3 -5 1 -10 -4 -10 -6 0 -11 5
-11 10 0 18 -35 10 -55 -12z m84 -31 c11 -21 15 -99 12 -202 -1 -16 -11 -41
-22 -55 -11 -14 -18 -20 -15 -13 4 6 -1 16 -11 21 -14 8 -17 26 -16 113 0 109
2 125 18 146 14 18 20 16 34 -10z"/>
<path d="M1192 395 l1 -175 27 0 27 0 0 175 0 175 -28 0 -27 0 0 -175z"/>
<path d="M1299 533 c-1 -46 -1 -295 0 -306 1 -5 11 -7 24 -5 21 3 22 7 22 91
0 48 3 87 6 87 4 0 17 -28 30 -62 18 -48 24 -57 30 -42 5 13 8 6 10 -26 3 -37
7 -45 24 -45 19 0 20 7 20 170 0 168 0 170 -22 173 -21 3 -22 0 -25 -90 l-3
-93 -22 49 c-13 27 -23 55 -23 62 0 8 -7 14 -16 14 -8 0 -12 5 -9 10 11 18 -6
50 -26 50 -15 0 -19 -7 -20 -37z m59 -58 c-3 -3 -9 2 -12 12 -6 14 -5 15 5 6
7 -7 10 -15 7 -18z m-3 -36 c-3 -12 -7 -24 -10 -27 -3 -3 -3 5 -1 19 6 30 5
29 10 29 3 0 3 -10 1 -21z m62 -106 c-3 -10 -5 -2 -5 17 0 19 2 27 5 18 2 -10
2 -26 0 -35z"/>
<path d="M1542 563 c-38 -15 -47 -93 -17 -139 22 -34 43 -40 59 -18 12 16 11
22 -5 43 -21 26 -25 56 -9 66 6 3 10 17 10 31 0 23 -11 28 -38 17z"/>
<path d="M1590 558 c0 -28 26 -83 38 -82 6 1 19 2 28 3 20 1 12 46 -13 74 -19
20 -53 23 -53 5z"/>
<path d="M1709 540 c0 -16 0 -79 0 -140 0 -193 -2 -180 26 -180 14 0 25 3 26
8 3 25 4 319 1 330 -2 6 -15 12 -28 12 -20 0 -24 -5 -25 -30z"/>
<path d="M1813 395 l0 -175 28 0 29 0 -1 86 c0 47 1 88 3 90 11 11 40 -26 48
-60 7 -34 6 -41 -16 -61 -51 -48 -11 -77 43 -31 23 20 27 31 27 75 0 38 -6 56
-23 75 -18 19 -19 25 -7 29 20 8 30 63 16 96 -10 25 -46 51 -70 51 -5 0 -11
-8 -13 -17 -4 -17 -5 -17 -6 0 -1 12 -9 17 -29 17 l-29 0 0 -175z m85 127 c25
-16 24 -59 -3 -88 -14 -15 -25 -25 -26 -23 0 2 -1 30 -2 62 -2 56 4 66 31 49z"/>
<path d="M2032 550 c-29 -27 -29 -81 -1 -127 22 -35 44 -40 62 -12 7 11 5 21
-8 37 -23 26 -27 52 -12 70 36 44 1 71 -41 32z"/>
<path d="M2097 558 c-2 -7 1 -27 8 -45 8 -17 10 -34 7 -38 -10 -10 51 6 62 16
11 10 -40 79 -59 79 -7 0 -15 -6 -18 -12z"/>
<path d="M1583 390 c-9 -13 -9 -21 -2 -26 6 -3 17 -22 25 -40 12 -27 12 -38 2
-54 -7 -11 -16 -20 -20 -20 -8 0 -23 39 -27 69 -1 10 -33 7 -50 -4 -14 -8 6
-59 33 -85 28 -25 56 -31 72 -16 7 6 22 19 34 29 19 16 22 26 18 62 -6 45 -40
105 -61 105 -7 0 -18 -9 -24 -20z m12 -159 c3 -5 2 -12 -3 -15 -5 -3 -9 1 -9
9 0 17 3 19 12 6z"/>
<path d="M2085 390 c-10 -11 -13 -20 -8 -20 6 0 18 -16 28 -36 13 -29 15 -42
6 -61 -6 -13 -11 -35 -11 -49 l0 -25 28 21 c58 46 65 86 24 144 -33 48 -43 52
-67 26z"/>
<path d="M2028 323 c-35 -9 -18 -68 30 -102 l28 -20 2 35 c2 19 -1 34 -6 34
-5 0 -12 14 -15 30 -4 17 -10 29 -14 29 -5 -1 -16 -3 -25 -6z"/>
</g>
</svg>
