<svg id="Layer_3" enable-background="new 0 0 64 64" height="512" viewBox="0 0 64 64" width="512" xmlns="http://www.w3.org/2000/svg"><path d="m47 31h-30c-1.105 0-2 .895-2 2v18c0 1.105.895 2 2 2h30c1.105 0 2-.895 2-2v-18c0-1.105-.895-2-2-2z" fill="#8892a0"/><path d="m15 33v13.179c2.65 1.151 5.718 1.821 9 1.821 9.941 0 18-6.044 18-13.5 0-1.213-.233-2.382-.633-3.5h-24.367c-1.105 0-2 .895-2 2z" fill="#c1c8d1"/><path d="m15 33v4h34v-4c0-1.105-.895-2-2-2h-30c-1.105 0-2 .895-2 2z" fill="#4d5d7a"/><circle cx="23" cy="45" fill="#e47c6e" r="4"/><circle cx="27" cy="45" fill="#4472b2" r="4"/><circle cx="32" cy="16" fill="#f5b953" r="10"/><circle cx="32" cy="16" fill="#f9d18b" r="7"/><path d="m32 61c-15.991 0-29-13.009-29-29 0-6.996 2.477-13.629 7-18.885v4.885h2v-7c0-.552-.448-1-1-1h-7v2h4.324c-4.734 5.589-7.324 12.604-7.324 20 0 17.093 13.907 31 31 31 6.77 0 13.202-2.144 18.601-6.198l-1.201-1.6c-5.05 3.793-11.067 5.798-17.4 5.798z" fill="#78b75b"/><path d="m63 32c0-17.093-13.907-31-31-31-6.77 0-13.202 2.144-18.601 6.198l1.201 1.6c5.05-3.793 11.067-5.798 17.4-5.798 15.991 0 29 13.009 29 29 0 6.996-2.477 13.629-7 18.885v-4.885h-2v7c0 .552.448 1 1 1h7v-2h-4.324c4.734-5.589 7.324-12.604 7.324-20z" fill="#78b75b"/><path d="m40 48h6v2h-6z" fill="#fff"/><path d="m40 44h6v2h-6z" fill="#fff"/><path d="m33 22.858c1.72-.447 3-2 3-3.858 0-2.206-1.794-4-4-4-1.103 0-2-.897-2-2s.897-2 2-2 2 .897 2 2h2c0-1.858-1.28-3.411-3-3.858v-3.092c-.329-.032-.662-.05-1-.05s-.671.018-1 .05v3.092c-1.72.447-3 2-3 3.858 0 2.206 1.794 4 4 4 1.103 0 2 .897 2 2s-.897 2-2 2-2-.897-2-2h-2c0 1.858 1.28 3.411 3 3.858v3.092c.329.033.662.05 1 .05s.671-.018 1-.05z" fill="#4d5d7a"/></svg>