<?xml version="1.0" encoding="utf-8"?>
<!-- Generator: Adobe Illustrator 23.0.4, SVG Export Plug-In . SVG Version: 6.00 Build 0)  -->
<svg version="1.1" id="Capa_1" xmlns="http://www.w3.org/2000/svg" xmlns:xlink="http://www.w3.org/1999/xlink" x="0px" y="0px"
	 viewBox="0 0 512 512" style="enable-background:new 0 0 512 512;" xml:space="preserve">
<style type="text/css">
	.st0{fill:url(#SVGID_1_);}
	.st1{opacity:0.1;fill:#0000CC;enable-background:new    ;}
	.st2{fill:#4D4DFF;}
	.st3{fill:#2C27FF;}
	.st4{fill:#37CE7B;}
	.st5{fill:#259659;}
	.st6{fill:#DDDDDD;}
	.st7{fill:#FFFFFF;}
	.st8{fill:#0000CC;}
	.st9{fill:#9494FF;}
	.st10{fill:#FFD6BB;}
	.st11{fill:#FF2C2C;}
	.st12{fill:#FF7300;}
	.st13{fill:#B3B3FF;}
	.st14{fill:#FF9D33;}
	.st15{fill:#FF6C6C;}
	.st16{fill:#6C6CFF;}
</style>
<linearGradient id="SVGID_1_" gradientUnits="userSpaceOnUse" x1="514.782" y1="557.218" x2="-122.413" y2="-79.9781" gradientTransform="matrix(1 0 0 -1 0 514)">
	<stop  offset="2.300000e-03" style="stop-color:#FF9494"/>
	<stop  offset="0.992" style="stop-color:#FFE8DC;stop-opacity:0"/>
</linearGradient>
<path class="st0" d="M428.4,171.9c-8.4-8.4-18-14.9-28.7-19.8c-28-12.7-50.1-35.4-62.4-63.6C314.3,36.4,262.3,0,201.7,0
	C122.4-0.1,56.6,63.2,53.6,142.4c-1.3,33.9,8.9,65.4,26.9,91c22.9,32.4,28.8,73.8,17,111.7c-16.8,53.9-10.9,104.9,21,136.8
	c55.9,55.9,170.6,31.8,256.2-53.8C460.2,342.5,484.3,227.8,428.4,171.9L428.4,171.9z"/>
<path class="st1" d="M339.9,103.1V80.7c0-16.6-13.4-30-30-30h-51.5v57.4h76.5C337.7,108.1,339.9,105.9,339.9,103.1z"/>
<path class="st1" d="M439.8,191.8h-75.7v-29.2c0-11-9-20-20-20h-204c0,0-0.1,0-0.1,0h-30.2c-11,0-20,9-20,20v299.7c0,11,9,20,20,20
	H140c0,0,0,0,0.1,0h204c11,0,20-9,20-20v-29.2h75.7c5.5,0,10-4.5,10-10V201.8C449.8,196.3,445.3,191.8,439.8,191.8L439.8,191.8z"/>
<path class="st2" d="M364.1,141.6v299.8c0,11-9,20-20,20h-204c-11.1,0-20-9-20-20V141.6c0-11,8.9-20,20-20h204
	C355.1,121.6,364.1,130.5,364.1,141.6z"/>
<path class="st3" d="M364.1,191.8v241.3h-74.2c-5.5,0-10-4.5-10-10V201.8c0-5.5,4.5-10,10-10H364.1z"/>
<path class="st4" d="M339.9,82.1V59.7c0-16.6-13.4-30-30-30h-51.5v57.5h76.5C337.7,87.1,339.9,84.9,339.9,82.1z"/>
<path class="st5" d="M339.9,59.7v14.8c0-16.6-13.4-30-30-30h-51.5V29.7h51.5C326.5,29.7,339.9,43.1,339.9,59.7z"/>
<path class="st5" d="M288.8,402.1V180.8c0-5.5,4.5-10,10-10h140.9c5.5,0,10,4.5,10,10v221.3c0,5.5-4.5,10-10,10H298.8
	C293.3,412.1,288.8,407.6,288.8,402.1z"/>
<path class="st3" d="M393.9,170.8h32.7v241.3h-32.7V170.8z"/>
<path class="st6" d="M364.3,212.2v-11.6c0-2.8,2.2-5,5-5s5,2.2,5,5v11.6c0,2.8-2.2,5-5,5S364.3,215,364.3,212.2z"/>
<path class="st6" d="M369.3,385.5c-1.3,0-2.6-0.5-3.5-1.5l-10-10c-2-2-2-5.1,0-7.1c2-2,5.1-2,7.1,0l10,10c2,2,2,5.1,0,7.1
	C371.9,385,370.6,385.5,369.3,385.5z"/>
<path class="st6" d="M369.3,361.6c-1.3,0-2.6-0.5-3.5-1.5l-10-10c-2-2-2-5.1,0-7.1c2-2,5.1-2,7.1,0l10,10c2,2,2,5.1,0,7.1
	C371.9,361.1,370.6,361.6,369.3,361.6z"/>
<path class="st6" d="M369.3,337.7c-1.3,0-2.6-0.5-3.5-1.5l-10-10c-2-2-2-5.1,0-7.1c2-2,5.1-2,7.1,0l10,10c2,2,2,5.1,0,7.1
	C371.9,337.2,370.6,337.7,369.3,337.7z"/>
<path class="st6" d="M369.3,313.7c-1.3,0-2.6-0.5-3.5-1.5l-10-10c-2-2-2-5.1,0-7.1c2-2,5.1-2,7.1,0l10,10c2,2,2,5.1,0,7.1
	C371.9,313.2,370.6,313.7,369.3,313.7z"/>
<path class="st6" d="M382.7,257.5v-56.9c0-2.8,2.2-5,5-5h6.5c2.8,0,5,2.2,5,5v56.9c0,2.8-2.2,5-5,5h-6.5
	C384.9,262.5,382.7,260.3,382.7,257.5z"/>
<path class="st4" d="M313.8,461.3h-204c-11,0-20-9-20-20V141.6c0-11,9-20,20-20h204c11,0,20,9,20,20v299.7
	C333.8,452.4,324.8,461.3,313.8,461.3z"/>
<path class="st7" d="M311,29.7c-16.6,0-30,13.4-30,30v104.1H142.1V59.7c0-16.6,13.4-30,30-30L311,29.7z"/>
<path class="st8" d="M439.8,165.8h-70.7v-24.2c0-13.8-11.2-25-25-25H286V92.1h48.9c5.5,0,10-4.5,10-10V59.7
	c0-18.8-14.9-34.2-33.5-35c-0.1,0-0.2,0-0.4,0H172.1c-19.3,0-35,15.7-35,35v56.9h-27.4c-13.8,0-25,11.2-25,25v299.7
	c0,13.8,11.2,25,25,25h234.3c13.8,0,25-11.2,25-25v-29.2h0c0-2.8-2.2-5-5-5h-25.3V204.8c0-2.8-2.2-5-5-5s-5,2.2-5,5v236.5
	c0,8.3-6.7,15-15,15h-204c-8.3,0-15-6.7-15-15V141.6c0-8.3,6.7-15,15-15h27.4v32.1h-8.4c-2.8,0-5,2.2-5,5s2.2,5,5,5h166.1
	c2.8,0,5-2.2,5-5s-2.2-5-5-5H286v-32.1h27.8c8.3,0,15,6.7,15,15v29.2c0,2.8,2.2,5,5,5h106c2.8,0,5,2.2,5,5v221.3c0,2.8-2.2,5-5,5
	h-41.7c-2.8,0-5,2.2-5,5s2.2,5,5,5h41.7c8.3,0,15-6.7,15-15V180.8C454.8,172.5,448,165.8,439.8,165.8L439.8,165.8z M338.8,441.3
	v-24.2h20.3v24.2c0,8.3-6.7,15-15,15h-10.3C336.9,452.1,338.8,446.9,338.8,441.3z M310.5,34.7c13.5,0.3,24.4,11.4,24.4,25v22.5H286
	V59.7C286,46.1,296.9,35,310.5,34.7z M147.1,158.7V59.7c0-13.8,11.2-25,25-25h114.4C280,41,276,49.9,276,59.7v99.1H147.1z
	 M344.1,126.6c8.3,0,15,6.7,15,15v24.2h-20.3v-24.2c0-5.6-1.9-10.8-5-15H344.1z"/>
<path class="st9" d="M289.8,259H133.7c-2.8,0-5-2.2-5-5v-63.9c0-2.8,2.2-5,5-5h156.1c2.8,0,5,2.2,5,5V254
	C294.8,256.8,292.6,259,289.8,259z"/>
<g>
	<path class="st10" d="M170.9,317.6h-22.5c-4.1,0-7.4-3.3-7.4-7.4v-22.5c0-4.1,3.3-7.4,7.4-7.4h22.5c4.1,0,7.4,3.3,7.4,7.4v22.5
		C178.3,314.3,175,317.6,170.9,317.6z"/>
	<path class="st10" d="M223.9,317.6h-22.5c-4.1,0-7.4-3.3-7.4-7.4v-22.5c0-4.1,3.3-7.4,7.4-7.4h22.5c4.1,0,7.4,3.3,7.4,7.4v22.5
		C231.3,314.3,228,317.6,223.9,317.6z"/>
	<path class="st10" d="M276.9,317.6h-22.5c-4.1,0-7.4-3.3-7.4-7.4v-22.5c0-4.1,3.3-7.4,7.4-7.4h22.5c4.1,0,7.4,3.3,7.4,7.4v22.5
		C284.3,314.3,281,317.6,276.9,317.6L276.9,317.6z"/>
	<path class="st10" d="M170.9,373.1h-22.5c-4.1,0-7.4-3.3-7.4-7.4v-22.5c0-4.1,3.3-7.4,7.4-7.4h22.5c4.1,0,7.4,3.3,7.4,7.4v22.5
		C178.3,369.7,175,373.1,170.9,373.1z"/>
	<path class="st10" d="M223.9,373.1h-22.5c-4.1,0-7.4-3.3-7.4-7.4v-22.5c0-4.1,3.3-7.4,7.4-7.4h22.5c4.1,0,7.4,3.3,7.4,7.4v22.5
		C231.3,369.7,228,373.1,223.9,373.1z"/>
	<path class="st10" d="M276.9,373.1h-22.5c-4.1,0-7.4-3.3-7.4-7.4v-22.5c0-4.1,3.3-7.4,7.4-7.4h22.5c4.1,0,7.4,3.3,7.4,7.4v22.5
		C284.3,369.7,281,373.1,276.9,373.1L276.9,373.1z"/>
	<path class="st10" d="M170.9,428.6h-22.5c-4.1,0-7.4-3.3-7.4-7.4v-22.5c0-4.1,3.3-7.4,7.4-7.4h22.5c4.1,0,7.4,3.3,7.4,7.4v22.5
		C178.3,425.2,175,428.6,170.9,428.6z"/>
	<path class="st10" d="M223.9,428.6h-22.5c-4.1,0-7.4-3.3-7.4-7.4v-22.5c0-4.1,3.3-7.4,7.4-7.4h22.5c4.1,0,7.4,3.3,7.4,7.4v22.5
		C231.3,425.2,228,428.6,223.9,428.6z"/>
	<path class="st10" d="M276.9,428.6h-22.5c-4.1,0-7.4-3.3-7.4-7.4v-22.5c0-4.1,3.3-7.4,7.4-7.4h22.5c4.1,0,7.4,3.3,7.4,7.4v22.5
		C284.3,425.2,281,428.6,276.9,428.6L276.9,428.6z"/>
</g>
<path class="st11" d="M181.1,91.1h-12.5c-2.8,0-5-2.2-5-5s2.2-5,5-5h12.5c2.8,0,5,2.2,5,5S183.8,91.1,181.1,91.1z"/>
<path class="st9" d="M226.1,117.1h-57.5c-2.8,0-5-2.2-5-5s2.2-5,5-5h57.5c2.8,0,5,2.2,5,5S228.8,117.1,226.1,117.1z"/>
<path class="st9" d="M256.1,137.1h-87.5c-2.8,0-5-2.2-5-5c0-2.8,2.2-5,5-5h87.5c2.8,0,5,2.2,5,5
	C261.1,134.9,258.8,137.1,256.1,137.1z"/>
<circle class="st12" cx="117.1" cy="396.6" r="5.6"/>
<circle class="st12" cx="117.1" cy="413.6" r="5.6"/>
<path class="st12" d="M122.7,430.5c0,3.1-2.5,5.6-5.6,5.6s-5.6-2.5-5.6-5.6s2.5-5.6,5.6-5.6S122.7,427.4,122.7,430.5"/>
<path class="st13" d="M246,185.1L172.1,259h-17.5l73.9-73.9H246z"/>
<path class="st13" d="M293.8,187.1L222,259h-38.5l73.9-73.9h32.5C291.5,185.1,292.9,185.9,293.8,187.1L293.8,187.1z"/>
<path class="st14" d="M402.3,101.1c-1.3,0-2.6-0.5-3.5-1.5c-2-2-2-5.1,0-7.1l10-10c2-2,5.1-2,7.1,0c2,2,2,5.1,0,7.1l-10,10
	C404.8,100.7,403.5,101.1,402.3,101.1z"/>
<path class="st15" d="M62.2,243.4c-1.3,0-2.6-0.5-3.5-1.5c-2-2-2-5.1,0-7.1l10-10c2-2,5.1-2,7.1,0c2,2,2,5.1,0,7.1l-10,10
	C64.8,242.9,63.5,243.4,62.2,243.4z"/>
<path class="st14" d="M409.2,471.3c-1.3,0-2.6-0.5-3.5-1.5l-6.5-6.5l-6.5,6.5c-2,2-5.1,2-7.1,0c-2-2-2-5.1,0-7.1l10-10
	c2-2,5.1-2,7.1,0l10,10c2,2,2,5.1,0,7.1C411.7,470.8,410.5,471.3,409.2,471.3z"/>
<path class="st16" d="M99.8,81.1c-1.3,0-2.6-0.5-3.5-1.5l-6.5-6.5l-6.5,6.5c-2,2-5.1,2-7.1,0c-2-2-2-5.1,0-7.1l10-10
	c2-2,5.1-2,7.1,0l10,10c2,2,2,5.1,0,7.1C102.3,80.6,101.1,81.1,99.8,81.1z"/>
<path class="st16" d="M433.6,140.4c-1.3,0-2.6-0.5-3.5-1.5l-6.5-6.5l-6.5,6.5c-2,2-5.1,2-7.1,0c-2-2-2-5.1,0-7.1l10-10
	c2-2,5.1-2,7.1,0l10,10c2,2,2,5.1,0,7.1C436.2,139.9,434.9,140.4,433.6,140.4z"/>
</svg>
